<svg width="88" height="88" viewBox="0 0 88 88" fill="none" xmlns="http://www.w3.org/2000/svg">
<g filter="url(#filter0_d_98_3)">
<circle cx="44" cy="42" r="38" fill="white"/>
</g>
<path d="M69.0359 41.2273L46.7671 18.9622C46.4622 18.6572 46.1002 18.4152 45.7017 18.2501C45.3033 18.085 44.8762 18 44.4449 18C44.0136 18 43.5865 18.085 43.188 18.2501C42.7896 18.4152 42.4276 18.6572 42.1227 18.9622L37.5006 23.5842L43.3659 29.4493C44.0576 29.2131 44.8018 29.1761 45.5135 29.3426C46.2252 29.5091 46.8758 29.8723 47.391 30.3908C47.9062 30.9093 48.2652 31.5622 48.4271 32.275C48.5891 32.9877 48.5473 33.7317 48.3067 34.4218L53.9584 40.0766C54.7945 39.7822 55.706 39.7813 56.5428 40.074C57.3795 40.3668 58.0916 40.9358 58.5618 41.6872C59.032 42.4387 59.2322 43.3279 59.1296 44.2084C59.027 45.0889 58.6276 45.9082 57.9971 46.5314C57.3589 47.1735 56.5175 47.5741 55.6168 47.6648C54.716 47.7555 53.8116 47.5306 53.0582 47.0286C52.3048 46.5266 51.7491 45.7786 51.4859 44.9124C51.2228 44.0461 51.2686 43.1154 51.6155 42.2792L46.3463 37.0069V50.8824C47.1472 51.2788 47.7881 51.9378 48.162 52.7494C48.536 53.5611 48.6205 54.4764 48.4014 55.3427C48.1823 56.2091 47.6729 56.9742 46.9581 57.5106C46.2433 58.0469 45.3662 58.3221 44.4731 58.2902C43.58 58.2583 42.7248 57.9213 42.0501 57.3353C41.3753 56.7493 40.9218 55.9498 40.7651 55.07C40.6084 54.1902 40.758 53.2833 41.1889 52.5004C41.6198 51.7175 42.306 51.1059 43.1332 50.7676V36.7647C42.6559 36.5692 42.2221 36.2811 41.8568 35.9171C41.4914 35.5531 41.2017 35.1204 41.0043 34.644C40.807 34.1675 40.7059 33.6567 40.7069 33.1409C40.7079 32.6252 40.811 32.1148 41.0102 31.6391L35.231 25.8569L19.9622 41.1253C19.6572 41.4302 19.4152 41.7922 19.2501 42.1906C19.085 42.5891 19 43.0161 19 43.4474C19 43.8787 19.085 44.3058 19.2501 44.7042C19.4152 45.1026 19.6572 45.4646 19.9622 45.7695L42.2311 68.0378C42.536 68.3428 42.898 68.5848 43.2964 68.7499C43.6949 68.915 44.122 69 44.5533 69C44.9846 69 45.4116 68.915 45.8101 68.7499C46.2085 68.5848 46.5705 68.3428 46.8755 68.0378L69.0391 45.8747C69.6544 45.2586 70 44.4234 70 43.5526C70 42.6818 69.6544 41.8466 69.0391 41.2305" fill="#5C87F3"/>
<defs>
<filter id="filter0_d_98_3" x="0" y="0" width="88" height="88" filterUnits="userSpaceOnUse" color-interpolation-filters="sRGB">
<feFlood flood-opacity="0" result="BackgroundImageFix"/>
<feColorMatrix in="SourceAlpha" type="matrix" values="0 0 0 0 0 0 0 0 0 0 0 0 0 0 0 0 0 0 127 0" result="hardAlpha"/>
<feOffset dy="2"/>
<feGaussianBlur stdDeviation="3"/>
<feComposite in2="hardAlpha" operator="out"/>
<feColorMatrix type="matrix" values="0 0 0 0 0 0 0 0 0 0 0 0 0 0 0 0 0 0 0.25 0"/>
<feBlend mode="normal" in2="BackgroundImageFix" result="effect1_dropShadow_98_3"/>
<feBlend mode="normal" in="SourceGraphic" in2="effect1_dropShadow_98_3" result="shape"/>
</filter>
</defs>
</svg>
