<svg width="88" height="88" viewBox="0 0 88 88" fill="none" xmlns="http://www.w3.org/2000/svg">
<g filter="url(#filter0_d_98_2)">
<circle cx="44" cy="42" r="38" fill="white"/>
</g>
<path d="M42 38.719C39.6405 38.719 37.719 40.6405 37.719 43C37.719 45.3595 39.6405 47.281 42 47.281C44.3595 47.281 46.281 45.3595 46.281 43C46.281 40.6405 44.3595 38.719 42 38.719ZM30.015 51.508L29.07 51.274C22.038 49.492 18 46.477 18 42.9925C18 39.508 22.0395 36.493 29.07 34.711L30.015 34.477L30.2805 35.4145C30.9939 37.87 31.9059 40.2634 33.0075 42.571L33.21 42.9925L33.0075 43.4215C31.9036 45.7281 30.9915 48.1217 30.2805 50.578L30.015 51.508ZM28.6335 36.898C23.289 38.398 20.0085 40.702 20.0085 42.9925C20.0085 45.283 23.2905 47.578 28.6335 49.087C29.2885 47.006 30.0792 44.9701 31.0005 42.9925C30.0779 41.0154 29.2872 38.9795 28.6335 36.898V36.898ZM53.985 51.508L53.7195 50.5705C53.0074 48.117 52.0953 45.726 50.9925 43.4215L50.79 42.9925L50.9925 42.5635C52.0964 40.2569 53.0085 37.8633 53.7195 35.407L53.985 34.477L54.93 34.711C61.962 36.493 66 39.508 66 42.9925C66 46.477 61.9605 49.492 54.93 51.274L53.985 51.508ZM52.9995 42.9925C53.9239 44.9688 54.7147 47.0048 55.3665 49.087C60.7185 47.5795 63.9915 45.283 63.9915 42.9925C63.9915 40.702 60.7095 38.407 55.3665 36.898C54.71 38.9785 53.9193 41.0143 52.9995 42.9925Z" fill="#5C87F3"/>
<path d="M28.617 36.8905L28.3515 35.953C26.3745 28.984 26.976 23.9845 30 22.2415C32.9685 20.53 37.7265 22.5535 42.7185 27.679L43.398 28.375L42.7185 29.071C40.9457 30.9154 39.3259 32.901 37.875 35.008L37.602 35.3905L37.1325 35.4295C34.5802 35.6309 32.0484 36.0388 29.562 36.649L28.617 36.8905ZM32.4135 23.6335C31.875 23.6335 31.398 23.743 30.999 23.977C29.0145 25.126 28.6635 29.11 30.03 34.4845C32.1622 34.0075 34.3233 33.6708 36.4995 33.4765C37.7524 31.6921 39.1224 29.9928 40.6005 28.39C37.4835 25.351 34.53 23.632 32.4135 23.632V23.6335ZM51.594 64.351C51.5865 64.351 51.5865 64.351 51.594 64.351C48.7425 64.351 45.078 62.2105 41.2815 58.3045L40.602 57.6085L41.2815 56.9125C43.0543 55.0681 44.6741 53.0825 46.125 50.9755L46.3905 50.593L46.86 50.5465C49.4156 50.3518 51.9504 49.9439 54.438 49.327L55.383 49.093L55.6485 50.0305C57.6255 56.9995 57.024 61.9915 54 63.733C53.2689 64.1532 52.4371 64.3663 51.594 64.3495V64.351ZM43.398 57.5935C46.515 60.6325 49.4685 62.3515 51.585 62.3515H51.5925C52.1235 62.3515 52.6005 62.2345 52.9995 62.008C54.984 60.859 55.344 56.875 53.9685 51.5005C51.8367 51.9779 49.6754 52.3122 47.499 52.501C46.2462 54.2878 44.8762 55.9896 43.398 57.595V57.5935ZM55.383 36.8905L54.438 36.649C51.9486 36.0408 49.4145 35.633 46.86 35.4295L46.3905 35.3905L46.125 35.008C44.6741 32.901 43.0543 30.9154 41.2815 29.071L40.602 28.375L41.2815 27.679C46.2735 22.5535 51.0315 20.53 54 22.2415C57.024 23.983 57.6255 28.984 55.6485 35.953L55.383 36.8905ZM47.5005 33.4765C49.6768 33.6703 51.8379 34.007 53.97 34.4845C55.3455 29.11 54.9855 25.1245 53.001 23.977C51.024 22.837 47.3055 24.586 43.3995 28.3915C44.8736 29.9978 46.2434 31.6967 47.5005 33.478V33.4765Z" fill="#5C87F3"/>
<path d="M32.4135 64.351C31.569 64.366 30.7335 64.156 30 63.7345C26.976 61.993 26.3745 56.9995 28.3515 50.032L28.617 49.0945L29.562 49.3285C31.875 49.915 34.422 50.32 37.1325 50.548L37.602 50.5945L37.8675 50.977C39.3184 53.084 40.9382 55.0696 42.711 56.914L43.3905 57.61L42.711 58.306C38.922 62.212 35.2575 64.3525 32.4135 64.3525V64.351ZM30.0315 51.5005C28.656 56.875 29.016 60.8605 31.0005 62.008C32.9775 63.133 36.6885 61.399 40.602 57.5935C39.1238 55.9881 37.7538 54.2863 36.501 52.4995C34.3245 52.3113 32.1632 51.977 30.0315 51.499V51.5005ZM42 52.7575C40.3515 52.7575 38.664 52.687 36.969 52.546L36.4995 52.507L36.2265 52.117C35.2691 50.7413 34.3698 49.3261 33.531 47.875C32.6905 46.4239 31.9113 44.9381 31.1955 43.4215L30.993 42.9925L31.1955 42.5635C32.6295 39.5311 34.3123 36.6226 36.2265 33.868L36.4995 33.478L36.969 33.439C40.3171 33.157 43.6829 33.157 47.031 33.439L47.5005 33.478L47.7735 33.868C49.6902 36.6211 51.373 39.5297 52.8045 42.5635L53.007 42.9925L52.8045 43.4215C51.3759 46.4568 49.6929 49.3657 47.7735 52.117L47.5005 52.507L47.031 52.546C45.3576 52.686 43.6792 52.7566 42 52.7575V52.7575ZM37.6095 50.5855C40.563 50.812 43.437 50.812 46.398 50.5855C48.0494 48.1674 49.517 45.6287 50.7885 42.991C49.5224 40.3489 48.0519 37.8097 46.3905 35.3965C43.4679 35.17 40.5321 35.17 37.6095 35.3965C35.9469 37.809 34.4764 40.3483 33.2115 42.991C34.4834 45.6301 35.9536 48.1688 37.6095 50.5855V50.5855Z" fill="#5C87F3"/>
<defs>
<filter id="filter0_d_98_2" x="0" y="0" width="88" height="88" filterUnits="userSpaceOnUse" color-interpolation-filters="sRGB">
<feFlood flood-opacity="0" result="BackgroundImageFix"/>
<feColorMatrix in="SourceAlpha" type="matrix" values="0 0 0 0 0 0 0 0 0 0 0 0 0 0 0 0 0 0 127 0" result="hardAlpha"/>
<feOffset dy="2"/>
<feGaussianBlur stdDeviation="3"/>
<feComposite in2="hardAlpha" operator="out"/>
<feColorMatrix type="matrix" values="0 0 0 0 0 0 0 0 0 0 0 0 0 0 0 0 0 0 0.25 0"/>
<feBlend mode="normal" in2="BackgroundImageFix" result="effect1_dropShadow_98_2"/>
<feBlend mode="normal" in="SourceGraphic" in2="effect1_dropShadow_98_2" result="shape"/>
</filter>
</defs>
</svg>
