<svg width="88" height="88" viewBox="0 0 88 88" fill="none" xmlns="http://www.w3.org/2000/svg">
<g filter="url(#filter0_d_98_4)">
<circle cx="44" cy="42" r="38" fill="white"/>
</g>
<g clip-path="url(#clip0_98_4)">
<path d="M53.1813 47.0556C54.8407 46.8831 56.1007 45.4375 56.0445 43.7031C56.0164 42.8695 55.667 42.079 55.0694 41.4972C54.4718 40.9153 53.6723 40.5871 52.8382 40.5813H52.722C50.9463 40.6375 49.572 42.1413 49.6282 43.9338C49.6882 44.8019 50.0313 45.5519 50.547 46.0713C48.5988 49.9469 45.6213 52.7781 41.1532 55.1481C38.1195 56.7681 34.9695 57.3456 31.8213 56.9406C29.2432 56.5938 27.2388 55.4369 25.9788 53.53C24.147 50.6988 23.9763 47.6331 25.5213 44.5694C26.6088 42.3738 28.3282 40.7538 29.4157 39.9456C29.1208 38.9749 28.8724 37.9907 28.6713 36.9963C20.367 43.0675 21.2276 51.2763 23.7438 55.15C25.6338 58.0413 29.4701 59.8338 33.7095 59.8338C34.8668 59.8416 36.0207 59.7055 37.1445 59.4288C44.4757 57.985 50.0295 53.59 53.1795 47.0575L53.1813 47.0556ZM63.2595 39.8875C58.9076 34.7425 52.4932 31.9094 45.1638 31.9094H44.247C43.9859 31.3889 43.5854 30.9512 43.0901 30.6449C42.5948 30.3387 42.0243 30.176 41.442 30.175H41.3257C39.552 30.2331 38.1757 31.7369 38.2338 33.5294C38.2901 35.2638 39.7226 36.6494 41.4401 36.6494H41.5563C42.1612 36.6181 42.745 36.4172 43.241 36.0697C43.7371 35.7222 44.1253 35.2421 44.3613 34.6844H45.3926C49.7445 34.6844 53.8676 35.9556 57.5895 38.4419C60.4526 40.3506 62.5151 42.835 63.6588 45.8425C64.6338 48.2688 64.5776 50.6388 63.5464 52.6638C61.9414 55.7275 59.2507 57.4038 55.6995 57.4038C53.4101 57.4038 51.2332 56.71 50.0876 56.1888C49.2633 56.9241 48.4035 57.6187 47.5113 58.27C49.9732 59.4269 52.4932 60.0625 54.8988 60.0625C60.3963 60.0625 64.4613 56.9988 66.0082 53.935C67.6676 50.5825 67.5532 44.8019 63.2595 39.8875Z" fill="#5C87F3"/>
<path d="M34.1687 48.0381C34.225 49.7725 35.6575 51.16 37.375 51.16H37.4893C39.265 51.1037 40.6393 49.6 40.5831 47.8075C40.555 46.9739 40.2056 46.1834 39.608 45.6015C39.0104 45.0196 38.2109 44.6914 37.3768 44.6856H37.2606C37.1244 44.6766 36.9878 44.6958 36.8593 44.7419C34.5118 40.8119 33.5387 36.535 33.8818 31.9094C34.1106 28.4406 35.2562 25.435 37.2606 22.9487C38.9218 20.8112 42.1281 19.7706 44.305 19.7125C50.3743 19.5962 52.9506 27.2275 53.1231 30.2912C53.8675 30.4637 55.1275 30.8687 55.9862 31.1575C55.2981 21.7937 49.5737 16.9375 44.0743 16.9375C38.9218 16.9375 34.1687 20.695 32.2787 26.245C29.6443 33.6437 31.3618 40.7538 34.57 46.3619C34.2831 46.7669 34.1106 47.4025 34.1687 48.0381V48.0381Z" fill="#5C87F3"/>
</g>
<defs>
<filter id="filter0_d_98_4" x="0" y="0" width="88" height="88" filterUnits="userSpaceOnUse" color-interpolation-filters="sRGB">
<feFlood flood-opacity="0" result="BackgroundImageFix"/>
<feColorMatrix in="SourceAlpha" type="matrix" values="0 0 0 0 0 0 0 0 0 0 0 0 0 0 0 0 0 0 127 0" result="hardAlpha"/>
<feOffset dy="2"/>
<feGaussianBlur stdDeviation="3"/>
<feComposite in2="hardAlpha" operator="out"/>
<feColorMatrix type="matrix" values="0 0 0 0 0 0 0 0 0 0 0 0 0 0 0 0 0 0 0.25 0"/>
<feBlend mode="normal" in2="BackgroundImageFix" result="effect1_dropShadow_98_4"/>
<feBlend mode="normal" in="SourceGraphic" in2="effect1_dropShadow_98_4" result="shape"/>
</filter>
<clipPath id="clip0_98_4">
<rect width="45" height="45" fill="white" transform="translate(22 16)"/>
</clipPath>
</defs>
</svg>
