<svg width="88" height="88" viewBox="0 0 88 88" fill="none" xmlns="http://www.w3.org/2000/svg">
<g filter="url(#filter0_d_98_5)">
<circle cx="44" cy="42" r="38" fill="white"/>
</g>
<g filter="url(#filter1_d_98_5)">
<circle cx="44" cy="42" r="38" fill="white"/>
</g>
<path d="M33.1111 31H28.5556C27.3473 31 26.1886 31.4846 25.3343 32.3473C24.48 33.21 24 34.38 24 35.6V54H28.5556V44.8H33.1111V54H37.6667V35.6C37.6667 34.38 37.1867 33.21 36.3324 32.3473C35.478 31.4846 34.3193 31 33.1111 31ZM33.1111 40.2H28.5556V35.6H33.1111V40.2ZM49.0556 31H39.9444V54H44.5V44.8H49.0556C50.2638 44.8 51.4225 44.3154 52.2768 43.4527C53.1311 42.59 53.6111 41.42 53.6111 40.2V35.6C53.6111 34.38 53.1311 33.21 52.2768 32.3473C51.4225 31.4846 50.2638 31 49.0556 31ZM49.0556 40.2H44.5V35.6H49.0556V40.2ZM62.7222 35.6V49.4H65V54H55.8889V49.4H58.1667V35.6H55.8889V31H65V35.6H62.7222Z" fill="#5C87F3"/>
<defs>
<filter id="filter0_d_98_5" x="0" y="0" width="88" height="88" filterUnits="userSpaceOnUse" color-interpolation-filters="sRGB">
<feFlood flood-opacity="0" result="BackgroundImageFix"/>
<feColorMatrix in="SourceAlpha" type="matrix" values="0 0 0 0 0 0 0 0 0 0 0 0 0 0 0 0 0 0 127 0" result="hardAlpha"/>
<feOffset dy="2"/>
<feGaussianBlur stdDeviation="3"/>
<feComposite in2="hardAlpha" operator="out"/>
<feColorMatrix type="matrix" values="0 0 0 0 0 0 0 0 0 0 0 0 0 0 0 0 0 0 0.25 0"/>
<feBlend mode="normal" in2="BackgroundImageFix" result="effect1_dropShadow_98_5"/>
<feBlend mode="normal" in="SourceGraphic" in2="effect1_dropShadow_98_5" result="shape"/>
</filter>
<filter id="filter1_d_98_5" x="0" y="0" width="88" height="88" filterUnits="userSpaceOnUse" color-interpolation-filters="sRGB">
<feFlood flood-opacity="0" result="BackgroundImageFix"/>
<feColorMatrix in="SourceAlpha" type="matrix" values="0 0 0 0 0 0 0 0 0 0 0 0 0 0 0 0 0 0 127 0" result="hardAlpha"/>
<feOffset dy="2"/>
<feGaussianBlur stdDeviation="3"/>
<feComposite in2="hardAlpha" operator="out"/>
<feColorMatrix type="matrix" values="0 0 0 0 0 0 0 0 0 0 0 0 0 0 0 0 0 0 0.25 0"/>
<feBlend mode="normal" in2="BackgroundImageFix" result="effect1_dropShadow_98_5"/>
<feBlend mode="normal" in="SourceGraphic" in2="effect1_dropShadow_98_5" result="shape"/>
</filter>
</defs>
</svg>
