<svg width="108" height="108" viewBox="0 0 108 108" fill="none" xmlns="http://www.w3.org/2000/svg">
<g filter="url(#filter0_d_109_2)">
<circle cx="54" cy="50" r="50" fill="white"/>
</g>
<path d="M54 55.2984C57.1929 55.2984 59.7812 52.6751 59.7812 49.4391C59.7812 46.203 57.1929 43.5797 54 43.5797C50.8071 43.5797 48.2188 46.203 48.2188 49.4391C48.2188 52.6751 50.8071 55.2984 54 55.2984Z" fill="#00D8FF"/>
<path d="M54 62.8734C47.0512 63.0438 40.1199 62.0945 33.465 60.0609C30.3908 59.0733 27.5236 57.5174 25.0082 55.4719C24.0483 54.7731 23.249 53.8721 22.665 52.8308C22.0811 51.7895 21.7263 50.6324 21.625 49.4391C21.625 45.5648 25.8245 41.768 32.8591 39.2836C39.6919 37.0822 46.8311 36.0153 54 36.1242C61.0733 36.0241 68.1168 37.0717 74.8634 39.2273C77.824 40.184 80.5941 41.6647 83.045 43.6008C83.9884 44.267 84.7758 45.1353 85.3513 46.1442C85.9267 47.1531 86.2762 48.278 86.375 49.4391C86.375 53.4656 81.6806 57.5461 74.1188 60.082C67.5927 62.0493 60.8076 62.9907 54 62.8734ZM54 38.9273C47.1414 38.8344 40.3119 39.8487 33.7679 41.932C27.2929 44.2219 24.3908 47.3531 24.3908 49.432C24.3908 51.607 27.5103 55.0266 34.3599 57.4008C40.7264 59.3364 47.3553 60.2374 54 60.0703C60.5129 60.1884 67.0053 59.2952 73.2516 57.4219C80.3625 55.0336 83.6 51.6094 83.6 49.4391C83.4833 48.6943 83.2155 47.9821 82.8135 47.3476C82.4115 46.713 81.884 46.1698 81.2644 45.7523C79.0715 44.0347 76.5971 42.7224 73.9546 41.8758C67.5004 39.8221 60.764 38.8267 54 38.9273Z" fill="#00D8FF"/>
<path d="M40.8651 78.6633C39.7863 78.6884 38.7202 78.4231 37.7756 77.8945C34.4641 75.9586 33.3171 70.3758 34.7069 62.9578C36.2393 55.8588 38.8944 49.0577 42.5694 42.818C46.0167 36.5581 50.43 30.8975 55.6419 26.0508C57.9386 23.929 60.5881 22.2364 63.4674 21.0516C64.5089 20.5569 65.645 20.3005 66.7951 20.3005C67.9453 20.3005 69.0814 20.5569 70.1228 21.0516C73.5661 23.0625 74.7062 29.2219 73.099 37.1273C71.5193 43.8412 68.9332 50.2698 65.4308 56.1891C62.1048 62.3751 57.8304 67.9864 52.7675 72.8133C50.3875 75.0182 47.6253 76.7577 44.6206 77.9437C43.4177 78.3962 42.148 78.6395 40.8651 78.6633ZM44.9651 44.2102C41.4596 50.1851 38.9149 56.6876 37.4264 63.4734C36.1476 70.3055 37.3755 74.4141 39.1608 75.4594C41.0108 76.5445 45.5016 75.5156 50.9545 70.6875C55.7877 66.0632 59.8674 60.6919 63.0419 54.7734C66.3972 49.1145 68.878 42.9683 70.398 36.5484C71.9104 29.107 70.6038 24.5508 68.7492 23.468C68.0541 23.198 67.3113 23.0772 66.5677 23.1131C65.8242 23.149 65.0961 23.3409 64.4295 23.6766C61.8665 24.7485 59.5101 26.2702 57.4688 28.1719C52.4893 32.8143 48.2736 38.2334 44.9813 44.2242L44.9651 44.2102Z" fill="#00D8FF"/>
<path d="M67.1281 78.6937C63.9947 78.6937 60.0149 76.7719 55.8709 73.1602C50.5676 68.2694 46.0797 62.5415 42.5809 56.1984C38.952 50.0446 36.3179 43.3419 34.7785 36.3445C34.1109 33.266 33.9872 30.0918 34.4132 26.9695C34.5116 25.8113 34.8596 24.689 35.4326 23.6819C36.0056 22.6747 36.7896 21.8073 37.7293 21.1406C41.168 19.1227 47.0024 21.1969 52.9571 26.5547C57.9072 31.2942 62.1109 36.7751 65.4215 42.8062C69.0482 48.8164 71.7099 55.3723 73.3071 62.2289C74.0034 65.4204 74.1109 68.715 73.6239 71.9461C73.5081 73.1377 73.1393 74.2898 72.543 75.3234C71.9467 76.357 71.1368 77.2477 70.169 77.9344C69.2398 78.4564 68.1903 78.7185 67.1281 78.6937ZM44.9744 54.7875C48.3308 60.8494 52.6178 66.3313 57.6746 71.0273C62.8754 75.5625 67.0009 76.5375 68.7746 75.4805C70.6246 74.3906 71.989 69.9422 70.583 62.7445C69.0426 56.1983 66.4896 49.9404 63.0188 44.2031C59.8595 38.4308 55.8471 33.1825 51.121 28.6406C45.5155 23.5969 40.9691 22.4695 39.1168 23.557C38.5395 24.0325 38.0657 24.6242 37.7254 25.2947C37.3851 25.9651 37.1856 26.6998 37.1396 27.4523C36.7719 30.2369 36.8917 33.0654 37.4934 35.8078C38.9741 42.4995 41.5004 48.9085 44.9767 54.7922L44.9744 54.7875Z" fill="#00D8FF"/>
<defs>
<filter id="filter0_d_109_2" x="0" y="0" width="108" height="108" filterUnits="userSpaceOnUse" color-interpolation-filters="sRGB">
<feFlood flood-opacity="0" result="BackgroundImageFix"/>
<feColorMatrix in="SourceAlpha" type="matrix" values="0 0 0 0 0 0 0 0 0 0 0 0 0 0 0 0 0 0 127 0" result="hardAlpha"/>
<feOffset dy="4"/>
<feGaussianBlur stdDeviation="2"/>
<feComposite in2="hardAlpha" operator="out"/>
<feColorMatrix type="matrix" values="0 0 0 0 0 0 0 0 0 0 0 0 0 0 0 0 0 0 0.25 0"/>
<feBlend mode="normal" in2="BackgroundImageFix" result="effect1_dropShadow_109_2"/>
<feBlend mode="normal" in="SourceGraphic" in2="effect1_dropShadow_109_2" result="shape"/>
</filter>
</defs>
</svg>
